# xmcd
# 
# Track frame offsets:
#     150
#     20586
#     46554
#     60721
#     73514
#     91708
#     105544
#     124940
#     145282
#     163867
#     189753
#     203695
#     217954
# 
# Disc length: 3154
# 
# Revision: 4
# Processed by: cddbd v1.5.2PL0 Copyright (c) Steve Scherf et al.
# Submitted via: fre:ac v1.0.31
# 
DISCID=ab0c500d
DTITLE=Christmas - Chris Botti December
DYEAR=2006
DGENRE=Christmas
TTITLE0=The Christmas Song
TTITLE1=Ave Maria
TTITLE2=Winter Wonderland
TTITLE3=The First Noel
TTITLE4=Let It Snow!
TTITLE5=Hallelujah
TTITLE6=I Really Don't Want Mucha For Christmas
TTITLE7=Have Yourself A Merry Little Christmas
TTITLE8=Santa Claus Is Comming To Town
TTITLE9=Silent Night
TTITLE10=Little Dummer Boy
TTITLE11=O Little Town Of Bethlehem
TTITLE12=I'll Be Home For Christmas
EXTD=YEAR: 2006
EXTT0=
EXTT1=
EXTT2=
EXTT3=
EXTT4=
EXTT5=
EXTT6=
EXTT7=
EXTT8=
EXTT9=
EXTT10=
EXTT11=
EXTT12=
PLAYORDER=
